<svg viewBox="0 0 15 16" fill="currentColor" xmlns="http://www.w3.org/2000/svg"><path d="M.615 15.06a.615.615 0 0 1-.593-.777l.906-3.31a7.5 7.5 0 0 1-.87-3.506C.059 3.35 3.409 0 7.526 0a7.42 7.42 0 0 1 5.283 2.19 7.42 7.42 0 0 1 2.185 5.283c-.002 4.118-3.352 7.468-7.469 7.468a7.5 7.5 0 0 1-3.352-.794l-3.402.893a.6.6 0 0 1-.156.02m3.633-2.183a.6.6 0 0 1 .294.075c.91.497 1.94.76 2.981.76a6.25 6.25 0 0 0 6.241-6.24A6.2 6.2 0 0 0 11.94 3.06a6.2 6.2 0 0 0-4.413-1.83 6.247 6.247 0 0 0-6.239 6.239c0 1.096.288 2.174.833 3.118a.62.62 0 0 1 .06.47l-.69 2.524 2.602-.683a.6.6 0 0 1 .156-.02" fill="currentColor"/><path d="M4.846 7.606c-.087-.117-.714-.95-.714-1.81 0-.862.452-1.286.612-1.461a.64.64 0 0 1 .467-.219c.117 0 .234.001.336.006.107.006.252-.04.394.3.146.351.495 1.213.54 1.3.043.088.072.19.014.307s-.088.19-.175.292c-.087.103-.184.229-.263.307-.087.087-.179.182-.076.357.102.175.453.749.973 1.213.669.597 1.233.781 1.408.869s.277.073.38-.044c.101-.117.437-.511.554-.686.116-.176.233-.146.393-.088s1.021.482 1.196.57.292.131.336.204.044.423-.102.832-.845.782-1.182.832a2.4 2.4 0 0 1-1.102-.069 10 10 0 0 1-.998-.369c-1.756-.758-2.903-2.526-2.99-2.643" fill="currentColor"/></svg>